{
  "asset": {
    "generator": "glTF-Transform v4.3.0",
    "version": "2.0"
  },
  "extras": {
    "atrium": {
      "name": "Space",
      "description": "A minimal gray-box test world.",
      "author": "Project Atrium",
      "navigation": {
        "mode": [
          "WALK",
          "FLY",
          "ORBIT",
          "TELEPORT"
        ],
        "terrainFollowing": true,
        "speed": {
          "default": 1.4,
          "min": 0.5,
          "max": 5
        },
        "collision": {
          "enabled": false
        },
        "updateRate": {
          "positionInterval": 1000,
          "maxViewRate": 20
        }
      }
    }
  },
  "accessors": [
    {
      "type": "VEC3",
      "componentType": 5126,
      "count": 24,
      "max": [
        5,
        0.02500000037252903,
        5
      ],
      "min": [
        -5,
        -0.02500000037252903,
        -5
      ],
      "bufferView": 0,
      "byteOffset": 0
    },
    {
      "type": "VEC3",
      "componentType": 5126,
      "count": 24,
      "bufferView": 0,
      "byteOffset": 12
    },
    {
      "type": "SCALAR",
      "componentType": 5123,
      "count": 36,
      "bufferView": 1,
      "byteOffset": 0
    },
    {
      "type": "SCALAR",
      "componentType": 5123,
      "count": 36,
      "bufferView": 1,
      "byteOffset": 72
    },
    {
      "type": "SCALAR",
      "componentType": 5123,
      "count": 192,
      "bufferView": 1,
      "byteOffset": 144
    },
    {
      "type": "SCALAR",
      "componentType": 5123,
      "count": 144,
      "bufferView": 1,
      "byteOffset": 528
    },
    {
      "type": "VEC3",
      "componentType": 5126,
      "count": 24,
      "max": [
        0.25,
        0.25,
        0.25
      ],
      "min": [
        -0.25,
        -0.25,
        -0.25
      ],
      "bufferView": 2,
      "byteOffset": 0
    },
    {
      "type": "VEC3",
      "componentType": 5126,
      "count": 24,
      "bufferView": 2,
      "byteOffset": 12
    },
    {
      "type": "VEC3",
      "componentType": 5126,
      "count": 100,
      "max": [
        0.05000000074505806,
        0.75,
        0.05000000074505806
      ],
      "min": [
        -0.05000000074505806,
        -0.75,
        -0.05000000074505806
      ],
      "bufferView": 3,
      "byteOffset": 0
    },
    {
      "type": "VEC3",
      "componentType": 5126,
      "count": 100,
      "bufferView": 3,
      "byteOffset": 12
    },
    {
      "type": "VEC3",
      "componentType": 5126,
      "count": 82,
      "max": [
        0.30000001192092896,
        0.20000000298023224,
        0.30000001192092896
      ],
      "min": [
        -0.30000001192092896,
        -0.20000000298023224,
        -0.30000001192092896
      ],
      "bufferView": 4,
      "byteOffset": 0
    },
    {
      "type": "VEC3",
      "componentType": 5126,
      "count": 82,
      "bufferView": 4,
      "byteOffset": 12
    },
    {
      "type": "SCALAR",
      "componentType": 5126,
      "count": 5,
      "max": [
        4
      ],
      "min": [
        0
      ],
      "bufferView": 5,
      "byteOffset": 0
    },
    {
      "type": "VEC4",
      "componentType": 5126,
      "count": 5,
      "bufferView": 5,
      "byteOffset": 20
    }
  ],
  "bufferViews": [
    {
      "buffer": 0,
      "byteOffset": 0,
      "byteLength": 576,
      "byteStride": 24,
      "target": 34962
    },
    {
      "buffer": 0,
      "byteOffset": 576,
      "byteLength": 816,
      "target": 34963
    },
    {
      "buffer": 0,
      "byteOffset": 1392,
      "byteLength": 576,
      "byteStride": 24,
      "target": 34962
    },
    {
      "buffer": 0,
      "byteOffset": 1968,
      "byteLength": 2400,
      "byteStride": 24,
      "target": 34962
    },
    {
      "buffer": 0,
      "byteOffset": 4368,
      "byteLength": 1968,
      "byteStride": 24,
      "target": 34962
    },
    {
      "buffer": 0,
      "byteOffset": 6336,
      "byteLength": 100
    }
  ],
  "buffers": [
    {
      "uri": "space-cameras.bin",
      "byteLength": 6436
    }
  ],
  "materials": [
    {
      "name": "mat-ground",
      "pbrMetallicRoughness": {
        "baseColorFactor": [
          0.5,
          0.5,
          0.5,
          1
        ],
        "metallicFactor": 0
      }
    },
    {
      "name": "mat-crate",
      "pbrMetallicRoughness": {
        "baseColorFactor": [
          0.6,
          0.35,
          0.1,
          1
        ],
        "metallicFactor": 0
      }
    },
    {
      "name": "mat-stand",
      "pbrMetallicRoughness": {
        "baseColorFactor": [
          0.2,
          0.2,
          0.2,
          1
        ],
        "metallicFactor": 0
      }
    },
    {
      "name": "mat-shade",
      "pbrMetallicRoughness": {
        "baseColorFactor": [
          0.9,
          0.85,
          0.6,
          1
        ],
        "metallicFactor": 0
      }
    }
  ],
  "meshes": [
    {
      "name": "mesh-ground",
      "primitives": [
        {
          "attributes": {
            "POSITION": 0,
            "NORMAL": 1
          },
          "mode": 4,
          "material": 0,
          "indices": 2
        }
      ]
    },
    {
      "name": "mesh-crate",
      "primitives": [
        {
          "attributes": {
            "POSITION": 6,
            "NORMAL": 7
          },
          "mode": 4,
          "material": 1,
          "indices": 3
        }
      ]
    },
    {
      "name": "mesh-stand",
      "primitives": [
        {
          "attributes": {
            "POSITION": 8,
            "NORMAL": 9
          },
          "mode": 4,
          "material": 2,
          "indices": 4
        }
      ]
    },
    {
      "name": "mesh-shade",
      "primitives": [
        {
          "attributes": {
            "POSITION": 10,
            "NORMAL": 11
          },
          "mode": 4,
          "material": 3,
          "indices": 5
        }
      ]
    }
  ],
  "cameras": [
    {
      "name": "MainCamera",
      "type": "perspective",
      "perspective": {
        "znear": 0.1,
        "zfar": 100,
        "yfov": 0.8,
        "aspectRatio": 1.777
      }
    },
    {
      "name": "OrthoCamera",
      "type": "orthographic",
      "orthographic": {
        "znear": 0.1,
        "zfar": 100,
        "xmag": 5,
        "ymag": 3
      }
    },
    {
      "name": "NestedCamera",
      "type": "perspective",
      "perspective": {
        "znear": 0.1,
        "zfar": 100,
        "yfov": 0.8
      }
    },
    {
      "name": "AnimatedCamera",
      "type": "perspective",
      "perspective": {
        "znear": 0.1,
        "zfar": 100,
        "yfov": 0.8
      }
    }
  ],
  "nodes": [
    {
      "name": "ground-plane",
      "mesh": 0
    },
    {
      "name": "crate-01",
      "translation": [
        1,
        0.25,
        0
      ],
      "mesh": 1
    },
    {
      "name": "lamp-01",
      "translation": [
        3,
        0,
        0
      ],
      "children": [
        3,
        4
      ]
    },
    {
      "name": "lamp-stand",
      "translation": [
        0,
        0.75,
        0
      ],
      "mesh": 2
    },
    {
      "name": "lamp-shade",
      "translation": [
        0,
        1.6,
        0
      ],
      "mesh": 3
    },
    {
      "name": "MainCamera",
      "translation": [
        0,
        2,
        8
      ],
      "camera": 0
    },
    {
      "name": "OrthoCamera",
      "translation": [
        10,
        2,
        0
      ],
      "rotation": [
        0,
        -0.7071067811865475,
        0,
        0.7071067811865476
      ],
      "camera": 1
    },
    {
      "name": "NestedCameraMount",
      "translation": [
        3,
        1,
        2
      ],
      "rotation": [
        0.16773125949652062,
        0.25488700224417876,
        -0.044943455527547777,
        0.9512512425641977
      ],
      "children": [
        8
      ]
    },
    {
      "name": "NestedCamera",
      "translation": [
        0,
        0.5,
        -1
      ],
      "camera": 2
    },
    {
      "name": "AnimatedCameraMount",
      "translation": [
        -3,
        1,
        2
      ],
      "rotation": [
        0.1205904774487396,
        0.37940952255126037,
        -0.049950211252314816,
        0.9159756150367534
      ],
      "children": [
        10
      ]
    },
    {
      "name": "AnimatedCamera",
      "translation": [
        0,
        0.5,
        -1
      ],
      "camera": 3
    }
  ],
  "animations": [
    {
      "name": "CameraMountRotate",
      "samplers": [
        {
          "input": 12,
          "output": 13,
          "interpolation": "LINEAR"
        }
      ],
      "channels": [
        {
          "sampler": 0,
          "target": {
            "node": 9,
            "path": "rotation"
          }
        }
      ]
    }
  ],
  "scenes": [
    {
      "name": "Scene",
      "nodes": [
        0,
        1,
        2,
        5,
        6,
        7,
        9
      ]
    }
  ]
}